<?xml version="1.0" encoding="utf-8"?>
<!-- Generator: Adobe Illustrator 16.0.4, SVG Export Plug-In . SVG Version: 6.00 Build 0)  -->
<!DOCTYPE svg PUBLIC "-//W3C//DTD SVG 1.1//EN" "http://www.w3.org/Graphics/SVG/1.1/DTD/svg11.dtd">
<svg version="1.1" id="Line_Expand" xmlns="http://www.w3.org/2000/svg" xmlns:xlink="http://www.w3.org/1999/xlink" x="0px"
	 y="0px" width="642.34px" height="642.34px" viewBox="0 0 642.34 642.34" enable-background="new 0 0 642.34 642.34"
	 xml:space="preserve">
<circle fill="#FFFFFF" cx="-533.892" cy="1147.25" r="321.17"/>
<circle fill="#FFFFFF" cx="429.619" cy="1147.25" r="321.17"/>
<g>
	<path d="M273.527-731.634c-3.17-4.417-5.703-9.259-7.523-14.382c-1.054-5.574-1.314-11.268-0.773-16.915
		c1.32-9.847-0.187-19.867-4.344-28.892c-5.792-8.185-13.798-14.548-23.078-18.344c-5.082-2.301-9.812-5.313-14.047-8.946
		c-3.629-4.237-6.641-8.966-8.945-14.047c-3.795-9.283-10.158-17.292-18.344-23.086c-9.021-4.146-19.033-5.651-28.875-4.336
		c-5.648,0.542-11.346,0.281-16.922-0.773c-5.127-1.817-9.971-4.349-14.391-7.52c-8.041-6.233-17.702-10.025-27.836-10.925
		c-10.135,0.898-19.798,4.689-27.84,10.922c-4.417,3.169-9.259,5.701-14.382,7.52c-5.575,1.046-11.268,1.306-16.915,0.773
		c-9.847-1.316-19.866,0.19-28.891,4.344c-8.184,5.793-14.545,13.8-18.34,23.082c-2.301,5.082-5.313,9.812-8.946,14.046
		c-4.237,3.63-8.966,6.642-14.047,8.946c-9.283,3.795-17.292,10.159-23.086,18.344c-4.147,9.021-5.65,19.033-4.336,28.875
		c0.542,5.649,0.281,11.346-0.773,16.922c-1.819,5.127-4.352,9.972-7.524,14.391c-6.232,8.041-10.022,17.703-10.921,27.836
		c0.898,10.135,4.689,19.798,10.921,27.84c3.171,4.417,5.704,9.259,7.524,14.383c1.054,5.573,1.314,11.269,0.772,16.914
		c-1.319,9.848,0.187,19.867,4.344,28.891c5.792,8.185,13.798,14.548,23.078,18.344c5.083,2.301,9.812,5.312,14.046,8.945
		c3.629,4.236,6.641,8.964,8.946,14.043c2.257,4.567,4.854,8.957,7.771,13.133L-35.07-437.89c-1.509,4.152,0.633,8.742,4.786,10.252
		c1.707,0.62,3.574,0.642,5.294,0.06l42.461-14.343l23.312,38.289c1.453,2.385,4.043,3.84,6.836,3.84
		c0.257,0,0.523-0.016,0.789-0.039c3.061-0.303,5.677-2.335,6.727-5.227l45.093-123.873c5.375,1.519,11.065,1.519,16.44,0
		l45.093,123.873c1.05,2.892,3.665,4.924,6.727,5.227c0.266,0.022,0.531,0.039,0.789,0.039c2.792,0,5.383-1.455,6.836-3.84
		l23.312-38.289l42.462,14.343c4.186,1.414,8.726-0.832,10.14-5.018c0.582-1.721,0.561-3.588-0.061-5.295l-44.923-123.42
		c2.914-4.176,5.512-8.563,7.771-13.127c2.302-5.082,5.313-9.812,8.945-14.047c4.237-3.629,8.967-6.641,14.048-8.945
		c9.283-3.795,17.291-10.158,23.086-18.344c4.146-9.021,5.65-19.033,4.336-28.875c-0.542-5.649-0.281-11.346,0.772-16.922
		c1.819-5.127,4.352-9.972,7.524-14.391c6.231-8.041,10.022-17.703,10.921-27.836C283.551-713.932,279.76-723.594,273.527-731.634z
		 M45.8-426.173l-17.984-29.539c-1.948-3.197-5.853-4.615-9.398-3.414l-32.757,11.062l37.163-102.109
		c8.458,3.107,17.528,4.189,26.48,3.156c5.649-0.537,11.346-0.277,16.922,0.773c5.127,1.818,9.971,4.352,14.39,7.523
		c1.624,1.033,3.303,2.088,5.019,3.12L45.8-426.173z M198.48-459.126c-3.546-1.201-7.45,0.217-9.398,3.414l-17.984,29.539
		l-39.831-109.423c1.716-1.04,3.396-2.091,5.019-3.124c4.418-3.17,9.259-5.703,14.383-7.523c5.574-1.051,11.268-1.311,16.914-0.773
		c8.957,1.037,18.032-0.046,26.493-3.164l37.163,102.117L198.48-459.126z M260.027-684.556c-4.096,5.767-7.291,12.124-9.477,18.852
		c-1.526,7.125-1.97,14.438-1.312,21.695c1.011,6.818,0.255,13.783-2.195,20.227c-4.402,5.424-10.132,9.617-16.633,12.172
		c-6.553,3.002-12.608,6.986-17.961,11.812c-4.832,5.35-8.818,11.406-11.82,17.961c-2.555,6.501-6.748,12.23-12.172,16.633
		c-6.444,2.444-13.407,3.199-20.227,2.195c-7.257-0.652-14.57-0.21-21.695,1.312c-6.725,2.188-13.078,5.383-18.844,9.478
		c-5.564,4.445-12.201,7.35-19.242,8.422c-7.042-1.072-13.677-3.977-19.242-8.422c-5.767-4.096-12.124-7.291-18.852-9.478
		c-4.489-1.104-9.104-1.615-13.726-1.52c-2.672,0-5.336,0.107-7.969,0.21c-6.819,1.007-13.783,0.251-20.228-2.195
		c-5.423-4.401-9.616-10.132-12.171-16.633c-3.002-6.554-6.986-12.61-11.813-17.964c-5.35-4.832-11.407-8.818-17.961-11.82
		c-6.501-2.555-12.231-6.748-16.633-12.172c-2.45-6.443-3.206-13.407-2.195-20.226c0.656-7.257,0.213-14.571-1.313-21.696
		c-2.187-6.725-5.382-13.078-9.477-18.843c-4.445-5.565-7.35-12.201-8.421-19.242c1.072-7.042,3.976-13.677,8.421-19.242
		c4.097-5.767,7.292-12.124,9.477-18.852c1.527-7.125,1.969-14.438,1.313-21.695c-1.011-6.819-0.255-13.783,2.195-20.227
		c4.402-5.423,10.132-9.616,16.633-12.171c6.552-3.003,12.609-6.986,17.961-11.812c4.832-5.35,8.818-11.407,11.82-17.961
		c2.555-6.501,6.748-12.231,12.172-16.633c6.443-2.448,13.407-3.204,20.226-2.195c7.257,0.652,14.571,0.21,21.696-1.312
		c6.725-2.187,13.078-5.382,18.843-9.477c5.565-4.445,12.201-7.349,19.242-8.421c7.041,1.072,13.678,3.976,19.242,8.422
		c5.768,4.096,12.123,7.292,18.852,9.477c7.125,1.522,14.438,1.965,21.695,1.312c6.819-1.01,13.783-0.254,20.227,2.195
		c5.424,4.402,9.617,10.132,12.172,16.633c3.002,6.552,6.985,12.607,11.812,17.961c5.35,4.832,11.406,8.818,17.961,11.82
		c6.501,2.555,12.231,6.748,16.633,12.172c2.449,6.443,3.205,13.407,2.195,20.226c-0.656,7.257-0.214,14.571,1.312,21.696
		c2.187,6.725,5.382,13.078,9.477,18.843c4.445,5.565,7.35,12.201,8.422,19.242C267.377-696.757,264.473-690.121,260.027-684.556z"
		/>
	<path d="M108.449-831.798c-70.692,0-128,57.308-128,128c0,70.692,57.308,128,128,128c70.692,0,128-57.308,128-128
		C236.368-774.458,179.108-831.718,108.449-831.798z M108.449-591.798c-61.856,0-112-50.144-112-112c0-61.856,50.144-112,112-112
		c61.855,0,112,50.144,112,112C220.38-641.971,170.276-591.869,108.449-591.798z"/>
	<path d="M137.152-743.713l-21.531-43.625c-2.329-3.961-7.428-5.284-11.389-2.955c-1.22,0.718-2.237,1.735-2.955,2.955
		l-21.531,43.625l-48.148,7c-4.373,0.636-7.401,4.696-6.766,9.068c0.253,1.739,1.071,3.346,2.328,4.573l34.843,33.96l-8.226,47.962
		c-0.745,4.355,2.181,8.49,6.536,9.234c1.733,0.297,3.517,0.015,5.073-0.805l43.062-22.642l43.062,22.642
		c3.91,2.057,8.748,0.554,10.805-3.356c0.818-1.557,1.102-3.34,0.805-5.074l-8.227-47.961l34.844-33.961
		c3.161-3.086,3.222-8.151,0.135-11.312c-1.228-1.257-2.834-2.075-4.572-2.328L137.152-743.713z M140.715-697.626
		c-1.883,1.838-2.742,4.484-2.297,7.078l6.195,36.125l-32.438-17.055c-2.332-1.229-5.121-1.229-7.453,0l-32.434,17.055l6.195-36.125
		c0.445-2.593-0.414-5.24-2.297-7.078l-26.25-25.586l36.274-5.272c2.606-0.376,4.86-2.013,6.024-4.375l16.214-32.857l16.219,32.859
		c1.164,2.362,3.417,3.999,6.023,4.375l36.273,5.273L140.715-697.626z"/>
</g>
<g id="Layer_3">
	<g>
		<g id="ARC_424_">
			<g>
				<path d="M712.753-556.55c-0.377,0-0.76-0.023-1.152-0.08c-18.278-2.641-35.815-8.376-52.104-17.057
					c-3.896-2.079-5.377-6.928-3.297-10.832c2.088-3.887,6.912-5.367,10.832-3.295c14.641,7.815,30.408,12.968,46.849,15.336
					c4.376,0.632,7.407,4.688,6.784,9.063C720.089-559.422,716.665-556.55,712.753-556.55L712.753-556.55z"/>
			</g>
		</g>
		<g id="ARC_423_">
			<g>
				<path d="M997.776-556.55c-3.912,0-7.336-2.872-7.912-6.855c-0.624-4.377,2.408-8.433,6.784-9.063
					c16.447-2.368,32.207-7.521,46.849-15.336c3.928-2.072,8.743-0.592,10.832,3.296c2.079,3.896,0.6,8.752-3.297,10.832
					c-16.287,8.68-33.823,14.416-52.104,17.056C998.537-556.574,998.152-556.55,997.776-556.55z"/>
			</g>
		</g>
		<g id="ARC_422_">
			<g>
				<path d="M914.097-628.367c-1.504,0-3.016-0.424-4.359-1.295c-3.704-2.416-4.751-7.369-2.336-11.073
					c11.336-17.384,30.487-27.768,51.239-27.768c4.425,0,8,3.576,8,8s-3.575,8-8,8c-15.328,0-29.472,7.664-37.832,20.504
					C919.28-629.646,916.721-628.367,914.097-628.367z"/>
			</g>
		</g>
		<g id="CIRCLE_38_">
			<g>
				<path d="M976.377-652.502c-28.36,0-52.312-23.952-52.312-52.304s23.951-52.304,52.312-52.304
					c28.352,0,52.304,23.952,52.304,52.304C1028.681-676.455,1004.729-652.502,976.377-652.502z M976.377-741.11
					c-19.681,0-36.312,16.624-36.312,36.304c0,19.68,16.632,36.304,36.312,36.304s36.304-16.624,36.304-36.304
					C1012.681-724.486,996.057-741.11,976.377-741.11z"/>
			</g>
		</g>
		<g id="ARC_421_">
			<g>
				<path d="M1047.265-599.326c-4.424,0-8-3.576-8-8c0-24.904-20.264-45.168-45.168-45.168c-4.424,0-8-3.576-8-8s3.576-8,8-8
					c33.729,0,61.168,27.448,61.168,61.168C1055.265-602.91,1051.688-599.326,1047.265-599.326z"/>
			</g>
		</g>
		<g id="LINE_818_">
			<g>
				<path d="M994.097-652.502h-35.447c-4.425,0-8-3.576-8-8s3.575-8,8-8h35.447c4.425,0,8,3.576,8,8
					S998.513-652.502,994.097-652.502z"/>
			</g>
		</g>
		<g id="LINE_817_">
			<g>
				<path d="M1047.265-572.742c-4.424,0-8-3.576-8-8v-26.584c0-4.425,3.576-8,8-8c4.425,0,8,3.575,8,8v26.584
					C1055.265-576.318,1051.688-572.742,1047.265-572.742L1047.265-572.742z"/>
			</g>
		</g>
		<g id="ARC_420_">
			<g>
				<path d="M760.745-566.838c-4.424,0-8-3.576-8-8c0-43.504,35.392-78.888,78.888-78.888c4.424,0,8,3.576,8,8c0,4.424-3.576,8-8,8
					c-34.681,0-62.888,28.207-62.888,62.888C768.745-570.415,765.161-566.838,760.745-566.838z"/>
			</g>
		</g>
		<g id="LINE_816_">
			<g>
				<path d="M878.896-637.726h-47.265c-4.425,0-8-3.576-8-8c0-4.424,3.575-8,8-8h47.265c4.425,0,8,3.576,8,8
					C886.896-641.302,883.321-637.726,878.896-637.726z"/>
			</g>
		</g>
		<g id="ARC_419_">
			<g>
				<path d="M796.433-628.367c-2.615,0-5.176-1.279-6.712-3.632c-8.367-12.832-22.504-20.504-37.832-20.504c-4.424,0-8-3.576-8-8
					s3.576-8,8-8c20.761,0,39.903,10.384,51.239,27.768c2.416,3.704,1.369,8.657-2.336,11.073
					C799.44-628.791,797.929-628.367,796.433-628.367z"/>
			</g>
		</g>
		<g id="LINE_815_">
			<g>
				<path d="M760.745-531.39c-4.424,0-8-3.576-8-8v-35.448c0-4.424,3.576-8,8-8s8,3.576,8,8v35.448
					C768.745-534.966,765.161-531.39,760.745-531.39z"/>
			</g>
		</g>
		<g id="CIRCLE_37_">
			<g>
				<path d="M855.265-637.726c-36.358,0-67.08-30.72-67.08-67.08s30.722-67.08,67.08-67.08c36.359,0,67.08,30.72,67.08,67.08
					S891.624-637.726,855.265-637.726z M855.265-755.886c-27.688,0-51.08,23.392-51.08,51.08c0,27.688,23.394,51.08,51.08,51.08
					c27.688,0,51.08-23.392,51.08-51.08C906.345-732.494,882.952-755.886,855.265-755.886z"/>
			</g>
		</g>
		<g id="ARC_418_">
			<g>
				<path d="M949.784-566.838c-4.424,0-8-3.576-8-8c0-34.681-28.208-62.888-62.888-62.888c-4.425,0-8-3.576-8-8c0-4.424,3.575-8,8-8
					c43.504,0,78.888,35.392,78.888,78.888C957.784-570.415,954.209-566.838,949.784-566.838z"/>
			</g>
		</g>
		<g id="LINE_814_">
			<g>
				<path d="M949.784-531.39c-4.424,0-8-3.576-8-8v-35.448c0-4.424,3.576-8,8-8c4.425,0,8,3.576,8,8v35.448
					C957.784-534.966,954.209-531.39,949.784-531.39z"/>
			</g>
		</g>
		<g id="ARC_417_">
			<g>
				<path d="M855.265-507.71c-33.76,0-67.512-8.208-98.288-24.615c-3.896-2.089-5.376-6.929-3.296-10.832
					c2.088-3.889,6.904-5.369,10.832-3.297c56.832,30.312,124.688,30.312,181.513,0c3.92-2.072,8.752-0.592,10.831,3.297
					c2.08,3.896,0.602,8.743-3.296,10.832C922.776-515.926,889.024-507.71,855.265-507.71L855.265-507.71z"/>
			</g>
		</g>
		<g id="CIRCLE_36_">
			<g>
				<path d="M734.153-652.502c-28.354,0-52.306-23.952-52.306-52.304s23.952-52.304,52.306-52.304
					c28.352,0,52.303,23.952,52.303,52.304C786.456-676.455,762.505-652.502,734.153-652.502z M734.153-741.11
					c-19.682,0-36.306,16.624-36.306,36.304c0,19.68,16.624,36.304,36.306,36.304c19.68,0,36.303-16.624,36.303-36.304
					C770.456-724.486,753.833-741.11,734.153-741.11z"/>
			</g>
		</g>
		<g id="ARC_416_">
			<g>
				<path d="M663.265-599.326c-4.424,0-8-3.576-8-8c0-33.729,27.448-61.168,61.168-61.168c4.425,0,8,3.576,8,8s-3.575,8-8,8
					c-24.903-0.008-45.168,20.256-45.168,45.168C671.265-602.91,667.688-599.326,663.265-599.326z"/>
			</g>
		</g>
		<g id="LINE_813_">
			<g>
				<path d="M751.881-652.502h-35.448c-4.424,0-8-3.576-8-8s3.576-8,8-8h35.448c4.424,0,8,3.576,8,8
					S756.305-652.502,751.881-652.502z"/>
			</g>
		</g>
		<g id="LINE_812_">
			<g>
				<path d="M663.265-572.742c-4.424,0-8-3.576-8-8v-26.584c0-4.425,3.576-8,8-8c4.425,0,8,3.575,8,8v26.584
					C671.265-576.318,667.688-572.742,663.265-572.742L663.265-572.742z"/>
			</g>
		</g>
	</g>
</g>
<g>
	<g>
		<g>
			<path d="M1557.327-855.793c-5.53-0.04-10.04,4.41-10.081,9.93c-0.039,5.521,4.4,10.03,9.931,10.07
				c5.521,0.04,10.029-4.4,10.07-9.92C1567.286-851.233,1562.847-855.743,1557.327-855.793z"/>
		</g>
	</g>
	<g>
		<g>
			<path d="M1556.872-795.794c-38.611-0.274-70.232,30.875-70.524,69.474c-0.291,38.597,30.875,70.233,69.476,70.524
				c0.178,0.001,0.355,0.002,0.534,0.002c38.354,0,69.698-31.056,69.988-69.476C1626.637-763.865,1595.472-795.503,1556.872-795.794
				z M1556.355-675.793c-0.127,0-0.259-0.001-0.385-0.002c-27.57-0.208-49.833-22.806-49.625-50.375
				c0.207-27.445,22.596-49.627,49.991-49.627c0.126,0,0.258,0.001,0.384,0.002c27.57,0.208,49.833,22.806,49.625,50.375
				C1606.139-697.975,1583.751-675.793,1556.355-675.793z"/>
		</g>
	</g>
	<g>
		<g>
			<path d="M1599.979-848.209c-5.201-1.846-10.922,0.879-12.768,6.085c-1.845,5.206,0.88,10.921,6.085,12.767
				c44.047,15.611,73.401,57.562,73.05,104.389c-0.041,5.521,4.402,10.033,9.926,10.075c0.024,0,0.051,0,0.076,0
				c5.486,0,9.957-4.428,9.998-9.925C1686.762-780.166,1652.053-829.752,1599.979-848.209z"/>
		</g>
	</g>
	<g>
		<g>
			<path d="M1617.704-519.357c66.513-85.614,108.08-130.259,108.641-205.164c0.704-94.243-75.777-171.278-170.015-171.278
				c-93.135,0-169.273,75.428-169.981,168.728c-0.57,76.936,41.768,121.52,108.739,207.7
				c-66.625,9.956-108.739,34.974-108.739,65.572c0,20.497,18.946,38.89,53.35,51.79c31.312,11.742,72.739,18.209,116.648,18.209
				s85.337-6.467,116.649-18.209c34.402-12.901,53.349-31.294,53.349-51.791C1726.345-484.381,1684.27-509.392,1617.704-519.357z
				 M1406.348-726.919c0.624-82.329,67.799-148.879,149.984-148.879c83.159,0,150.634,67.988,150.014,151.129
				c-0.531,71.134-44.613,114.971-114.99,206.714c-12.554,16.356-24.081,31.82-34.993,46.947
				c-10.88-15.136-22.179-30.323-34.918-46.953C1448.156-613.545,1405.806-654.069,1406.348-726.919z M1556.347-403.798
				c-85.851,0-149.999-26.397-149.999-50c0-17.504,38.349-39.616,102.826-47.273c14.253,18.701,26.749,35.691,39.005,53.043
				c1.872,2.65,4.914,4.229,8.159,4.23c0.003,0,0.006,0,0.01,0c3.241,0,6.282-1.572,8.157-4.217
				c12.141-17.126,24.979-34.535,39.109-53.045c64.417,7.665,102.73,29.77,102.73,47.263
				C1706.345-430.196,1642.197-403.798,1556.347-403.798z"/>
		</g>
	</g>
</g>
<g>
	<path fill="#0D4A94" d="M-368.813,1055.412c-3.17-4.418-5.703-9.259-7.523-14.383c-1.054-5.573-1.314-11.269-0.773-16.914
		c1.32-9.849-0.187-19.867-4.344-28.892c-5.792-8.185-13.798-14.548-23.078-18.344c-5.082-2.301-9.812-5.312-14.047-8.945
		c-3.629-4.236-6.641-8.967-8.945-14.047c-3.795-9.282-10.158-17.293-18.344-23.087c-9.021-4.146-19.033-5.65-28.875-4.336
		c-5.648,0.542-11.346,0.281-16.922-0.771c-5.127-1.818-9.971-4.351-14.391-7.521c-8.041-6.232-17.702-10.024-27.836-10.925
		c-10.135,0.898-19.798,4.689-27.84,10.922c-4.417,3.169-9.259,5.701-14.382,7.521c-5.575,1.046-11.268,1.307-16.915,0.772
		c-9.847-1.315-19.866,0.189-28.891,4.344c-8.184,5.794-14.545,13.802-18.34,23.082c-2.301,5.082-5.313,9.812-8.946,14.046
		c-4.237,3.631-8.966,6.643-14.047,8.946c-9.283,3.795-17.292,10.158-23.086,18.344c-4.147,9.021-5.65,19.033-4.336,28.876
		c0.542,5.647,0.281,11.346-0.773,16.922c-1.819,5.127-4.352,9.972-7.524,14.391c-6.232,8.041-10.022,17.703-10.921,27.836
		c0.898,10.135,4.689,19.798,10.921,27.84c3.171,4.418,5.704,9.26,7.524,14.383c1.054,5.573,1.314,11.269,0.772,16.914
		c-1.319,9.849,0.187,19.867,4.344,28.892c5.792,8.185,13.798,14.548,23.078,18.344c5.083,2.301,9.812,5.313,14.046,8.945
		c3.629,4.235,6.641,8.964,8.946,14.043c2.257,4.566,4.854,8.957,7.771,13.133l-44.92,123.415
		c-1.509,4.152,0.633,8.742,4.786,10.252c1.707,0.62,3.574,0.642,5.294,0.06l42.461-14.343l23.312,38.289
		c1.453,2.385,4.043,3.84,6.836,3.84c0.257,0,0.523-0.016,0.789-0.039c3.061-0.303,5.677-2.335,6.727-5.227l45.093-123.873
		c5.375,1.519,11.065,1.519,16.44,0l45.093,123.873c1.05,2.892,3.665,4.924,6.727,5.227c0.266,0.022,0.531,0.039,0.789,0.039
		c2.792,0,5.383-1.455,6.836-3.84l23.312-38.289l42.462,14.343c4.186,1.414,8.726-0.832,10.14-5.018
		c0.582-1.721,0.561-3.588-0.061-5.295l-44.923-123.42c2.914-4.177,5.512-8.563,7.771-13.127c2.302-5.082,5.313-9.812,8.945-14.048
		c4.237-3.629,8.967-6.641,14.048-8.944c9.283-3.795,17.291-10.158,23.086-18.344c4.146-9.021,5.65-19.033,4.336-28.875
		c-0.542-5.648-0.281-11.347,0.772-16.923c1.819-5.127,4.352-9.972,7.524-14.391c6.231-8.041,10.022-17.703,10.921-27.836
		C-358.79,1073.115-362.581,1063.453-368.813,1055.412z M-596.541,1360.873l-17.984-29.539c-1.948-3.197-5.853-4.615-9.398-3.414
		l-32.757,11.062l37.163-102.109c8.458,3.107,17.528,4.189,26.48,3.156c5.649-0.537,11.346-0.277,16.922,0.772
		c5.127,1.818,9.971,4.353,14.39,7.523c1.624,1.033,3.303,2.088,5.019,3.12L-596.541,1360.873z M-443.86,1327.92
		c-3.546-1.201-7.45,0.217-9.398,3.414l-17.984,29.539l-39.831-109.423c1.716-1.04,3.396-2.091,5.02-3.124
		c4.418-3.17,9.259-5.703,14.383-7.523c5.574-1.051,11.268-1.311,16.914-0.772c8.957,1.037,18.032-0.046,26.493-3.164
		l37.163,102.117L-443.86,1327.92z M-382.313,1102.49c-4.096,5.768-7.291,12.123-9.477,18.852
		c-1.526,7.125-1.97,14.438-1.312,21.695c1.011,6.818,0.255,13.783-2.195,20.227c-4.402,5.424-10.132,9.617-16.633,12.172
		c-6.553,3.002-12.608,6.986-17.961,11.812c-4.832,5.35-8.818,11.406-11.82,17.961c-2.555,6.501-6.748,12.23-12.172,16.633
		c-6.444,2.444-13.407,3.199-20.227,2.195c-7.257-0.652-14.57-0.21-21.695,1.312c-6.725,2.188-13.078,5.383-18.844,9.477
		c-5.564,4.445-12.201,7.35-19.242,8.422c-7.042-1.072-13.677-3.977-19.242-8.422c-5.767-4.096-12.124-7.291-18.852-9.477
		c-4.489-1.104-9.104-1.615-13.726-1.521c-2.672,0-5.336,0.108-7.969,0.21c-6.819,1.007-13.783,0.251-20.228-2.195
		c-5.423-4.4-9.616-10.132-12.171-16.633c-3.002-6.554-6.986-12.609-11.813-17.964c-5.35-4.832-11.407-8.818-17.961-11.82
		c-6.501-2.555-12.231-6.748-16.633-12.172c-2.45-6.442-3.206-13.407-2.195-20.227c0.656-7.256,0.213-14.57-1.313-21.695
		c-2.187-6.725-5.382-13.078-9.477-18.844c-4.445-5.564-7.35-12.201-8.421-19.242c1.072-7.041,3.976-13.678,8.421-19.242
		c4.097-5.768,7.292-12.123,9.477-18.852c1.527-7.125,1.969-14.438,1.313-21.695c-1.011-6.817-0.255-13.783,2.195-20.227
		c4.402-5.424,10.132-9.617,16.633-12.172c6.552-3.002,12.609-6.985,17.961-11.812c4.832-5.35,8.818-11.406,11.82-17.961
		c2.555-6.501,6.748-12.229,12.172-16.633c6.443-2.448,13.407-3.204,20.226-2.195c7.257,0.652,14.571,0.21,21.696-1.312
		c6.725-2.188,13.078-5.383,18.843-9.478c5.565-4.444,12.201-7.35,19.242-8.422c7.041,1.072,13.678,3.978,19.242,8.422
		c5.768,4.097,12.123,7.291,18.852,9.478c7.125,1.521,14.438,1.965,21.695,1.312c6.819-1.01,13.783-0.254,20.227,2.195
		c5.424,4.401,9.617,10.132,12.172,16.633c3.002,6.553,6.985,12.608,11.812,17.961c5.35,4.832,11.406,8.818,17.961,11.82
		c6.501,2.555,12.231,6.748,16.633,12.172c2.449,6.443,3.205,13.407,2.195,20.227c-0.656,7.257-0.214,14.57,1.312,21.695
		c2.187,6.725,5.382,13.078,9.477,18.844c4.445,5.564,7.35,12.201,8.422,19.242C-374.964,1090.289-377.868,1096.926-382.313,1102.49
		z"/>
	<path fill="#0D4A94" d="M-533.892,955.248c-70.692,0-128,57.308-128,128s57.308,128,128,128s128-57.308,128-128
		C-405.973,1012.589-463.232,955.328-533.892,955.248z M-533.892,1195.248c-61.856,0-112-50.145-112-112s50.144-112,112-112
		c61.855,0,112,50.145,112,112C-421.961,1145.075-472.064,1195.178-533.892,1195.248z"/>
	<path fill="#0D4A94" d="M-505.188,1043.334l-21.531-43.625c-2.329-3.961-7.428-5.284-11.389-2.955
		c-1.22,0.718-2.237,1.734-2.955,2.955l-21.531,43.625l-48.148,7c-4.373,0.635-7.401,4.695-6.766,9.067
		c0.253,1.738,1.071,3.346,2.328,4.572l34.843,33.962l-8.226,47.961c-0.745,4.354,2.181,8.489,6.536,9.233
		c1.733,0.297,3.517,0.015,5.073-0.805l43.062-22.642l43.062,22.642c3.91,2.057,8.748,0.554,10.805-3.356
		c0.818-1.557,1.102-3.34,0.805-5.072l-8.227-47.963l34.844-33.961c3.161-3.087,3.222-8.15,0.135-11.312
		c-1.228-1.256-2.834-2.074-4.572-2.327L-505.188,1043.334z M-501.626,1089.42c-1.883,1.838-2.742,4.484-2.297,7.078l6.195,36.125
		l-32.438-17.055c-2.332-1.229-5.121-1.229-7.453,0l-32.434,17.055l6.195-36.125c0.445-2.594-0.414-5.24-2.297-7.078l-26.25-25.586
		l36.274-5.273c2.606-0.375,4.86-2.013,6.024-4.375l16.214-32.856l16.219,32.858c1.164,2.361,3.417,3.998,6.023,4.375l36.273,5.273
		L-501.626,1089.42z"/>
</g>
<g id="Layer_3_1_">
	<g>
		<g id="ARC_9_">
			<g>
				<path fill="#0D4A94" d="M272.651,1238.943c-0.415,0-0.837-0.026-1.269-0.09c-20.134-2.907-39.45-9.227-57.39-18.785
					c-4.292-2.292-5.922-7.631-3.631-11.933c2.3-4.28,7.613-5.911,11.931-3.629c16.125,8.607,33.493,14.282,51.601,16.892
					c4.82,0.695,8.159,5.163,7.473,9.981C280.731,1235.778,276.961,1238.943,272.651,1238.943L272.651,1238.943z"/>
			</g>
		</g>
		<g id="ARC_8_">
			<g>
				<path fill="#0D4A94" d="M586.589,1238.943c-4.31,0-8.08-3.165-8.715-7.552c-0.688-4.82,2.652-9.29,7.473-9.983
					c18.116-2.609,35.476-8.282,51.602-16.893c4.326-2.281,9.63-0.651,11.931,3.629c2.29,4.293,0.661,9.641-3.631,11.932
					c-17.939,9.561-37.255,15.879-57.39,18.787C587.427,1238.917,587.003,1238.943,586.589,1238.943z"/>
			</g>
		</g>
		<g id="ARC_7_">
			<g>
				<path fill="#0D4A94" d="M494.42,1159.842c-1.656,0-3.321-0.468-4.803-1.427c-4.079-2.661-5.232-8.116-2.572-12.195
					c12.485-19.147,33.581-30.587,56.438-30.587c4.873,0,8.812,3.939,8.812,8.812c0,4.875-3.938,8.812-8.812,8.812
					c-16.884,0-32.461,8.441-41.669,22.584C500.13,1158.433,497.311,1159.842,494.42,1159.842z"/>
			</g>
		</g>
		<g id="CIRCLE_3_">
			<g>
				<path fill="#0D4A94" d="M563.019,1133.256c-31.236,0-57.618-26.381-57.618-57.607c0-31.228,26.382-57.61,57.618-57.61
					c31.229,0,57.609,26.383,57.609,57.61C620.628,1106.875,594.246,1133.256,563.019,1133.256z M563.019,1035.66
					c-21.677,0-39.995,18.312-39.995,39.986c0,21.676,18.318,39.985,39.995,39.985s39.986-18.31,39.986-39.985
					C603.005,1053.972,584.694,1035.66,563.019,1035.66z"/>
			</g>
		</g>
		<g id="ARC_6_">
			<g>
				<path fill="#0D4A94" d="M641.098,1191.828c-4.873,0-8.812-3.938-8.812-8.812c0-27.431-22.318-49.75-49.749-49.75
					c-4.873,0-8.812-3.938-8.812-8.812c0-4.875,3.938-8.812,8.812-8.812c37.147,0,67.373,30.231,67.373,67.373
					C649.909,1187.881,645.97,1191.828,641.098,1191.828z"/>
			</g>
		</g>
		<g id="LINE_7_">
			<g>
				<path fill="#0D4A94" d="M582.536,1133.256h-39.045c-4.872,0-8.812-3.937-8.812-8.812c0-4.872,3.939-8.812,8.812-8.812h39.045
					c4.872,0,8.812,3.939,8.812,8.812C591.348,1129.319,587.399,1133.256,582.536,1133.256z"/>
			</g>
		</g>
		<g id="LINE_6_">
			<g>
				<path fill="#0D4A94" d="M641.098,1221.109c-4.873,0-8.812-3.939-8.812-8.812v-29.281c0-4.875,3.938-8.812,8.812-8.812
					c4.872,0,8.812,3.937,8.812,8.812v29.281C649.909,1217.17,645.97,1221.109,641.098,1221.109L641.098,1221.109z"/>
			</g>
		</g>
		<g id="ARC_5_">
			<g>
				<path fill="#0D4A94" d="M325.513,1227.61c-4.873,0-8.812-3.939-8.812-8.812c0-47.917,38.98-86.89,86.89-86.89
					c4.873,0,8.812,3.938,8.812,8.812s-3.938,8.812-8.812,8.812c-38.198,0-69.267,31.067-69.267,69.267
					C334.324,1223.671,330.376,1227.61,325.513,1227.61z"/>
			</g>
		</g>
		<g id="LINE_5_">
			<g>
				<path fill="#0D4A94" d="M455.649,1149.532h-52.06c-4.873,0-8.812-3.938-8.812-8.812c0-4.872,3.938-8.812,8.812-8.812h52.06
					c4.874,0,8.812,3.938,8.812,8.812C464.461,1145.594,460.523,1149.532,455.649,1149.532z"/>
			</g>
		</g>
		<g id="ARC_4_">
			<g>
				<path fill="#0D4A94" d="M364.82,1159.842c-2.882,0-5.701-1.409-7.395-4.002c-9.217-14.134-24.786-22.584-41.669-22.584
					c-4.873,0-8.812-3.937-8.812-8.812c0-4.872,3.938-8.812,8.812-8.812c22.865,0,43.951,11.438,56.438,30.587
					c2.661,4.079,1.508,9.534-2.572,12.195C368.133,1159.374,366.468,1159.842,364.82,1159.842z"/>
			</g>
		</g>
		<g id="LINE_4_">
			<g>
				<path fill="#0D4A94" d="M325.513,1266.655c-4.873,0-8.812-3.938-8.812-8.812v-39.045c0-4.873,3.938-8.812,8.812-8.812
					c4.872,0,8.812,3.938,8.812,8.812v39.045C334.324,1262.717,330.376,1266.655,325.513,1266.655z"/>
			</g>
		</g>
		<g id="CIRCLE_2_">
			<g>
				<path fill="#0D4A94" d="M429.62,1149.532c-40.048,0-73.885-33.837-73.885-73.886c0-40.05,33.837-73.885,73.885-73.885
					s73.885,33.835,73.885,73.885C503.505,1115.695,469.668,1149.532,429.62,1149.532z M429.62,1019.386
					c-30.496,0-56.262,25.767-56.262,56.263c0,30.495,25.766,56.262,56.262,56.262s56.262-25.767,56.262-56.262
					C485.882,1045.152,460.116,1019.386,429.62,1019.386z"/>
			</g>
		</g>
		<g id="ARC_3_">
			<g>
				<path fill="#0D4A94" d="M533.729,1227.61c-4.872,0-8.812-3.939-8.812-8.812c0-38.198-31.069-69.267-69.267-69.267
					c-4.873,0-8.812-3.938-8.812-8.812c0-4.872,3.938-8.812,8.812-8.812c47.917,0,86.89,38.98,86.89,86.89
					C542.539,1223.671,538.602,1227.61,533.729,1227.61z"/>
			</g>
		</g>
		<g id="LINE_3_">
			<g>
				<path fill="#0D4A94" d="M533.729,1266.655c-4.872,0-8.812-3.938-8.812-8.812v-39.045c0-4.873,3.939-8.812,8.812-8.812
					c4.873,0,8.812,3.938,8.812,8.812v39.045C542.539,1262.717,538.602,1266.655,533.729,1266.655z"/>
			</g>
		</g>
		<g id="ARC_2_">
			<g>
				<path fill="#0D4A94" d="M429.62,1292.737c-37.186,0-74.36-9.042-108.259-27.112c-4.291-2.302-5.921-7.633-3.63-11.931
					c2.3-4.283,7.604-5.914,11.931-3.632c62.598,33.388,137.336,33.388,199.925,0c4.317-2.282,9.64-0.651,11.931,3.632
					c2.291,4.288,0.662,9.629-3.63,11.931C503.98,1283.688,466.805,1292.737,429.62,1292.737L429.62,1292.737z"/>
			</g>
		</g>
		<g id="CIRCLE_1_">
			<g>
				<path fill="#0D4A94" d="M296.223,1133.256c-31.229,0-57.61-26.381-57.61-57.607c0-31.228,26.382-57.61,57.61-57.61
					s57.608,26.383,57.608,57.61C353.831,1106.875,327.45,1133.256,296.223,1133.256z M296.223,1035.66
					c-21.677,0-39.987,18.312-39.987,39.986c0,21.676,18.311,39.985,39.987,39.985s39.985-18.31,39.985-39.985
					C336.208,1053.972,317.899,1035.66,296.223,1035.66z"/>
			</g>
		</g>
		<g id="ARC_1_">
			<g>
				<path fill="#0D4A94" d="M218.143,1191.828c-4.873,0-8.812-3.938-8.812-8.812c0-37.148,30.232-67.373,67.373-67.373
					c4.873,0,8.812,3.938,8.812,8.812c0,4.873-3.938,8.812-8.812,8.812c-27.43-0.011-49.75,22.312-49.75,49.75
					C226.955,1187.881,223.016,1191.828,218.143,1191.828z"/>
			</g>
		</g>
		<g id="LINE_2_">
			<g>
				<path fill="#0D4A94" d="M315.749,1133.256h-39.045c-4.872,0-8.812-3.937-8.812-8.812c0-4.872,3.939-8.812,8.812-8.812h39.045
					c4.872,0,8.812,3.939,8.812,8.812C324.561,1129.319,320.621,1133.256,315.749,1133.256z"/>
			</g>
		</g>
		<g id="LINE_1_">
			<g>
				<path fill="#0D4A94" d="M218.143,1221.109c-4.873,0-8.812-3.939-8.812-8.812v-29.281c0-4.875,3.939-8.812,8.812-8.812
					s8.812,3.937,8.812,8.812v29.281C226.955,1217.17,223.016,1221.109,218.143,1221.109L218.143,1221.109z"/>
			</g>
		</g>
	</g>
</g>
<circle fill="#FFFFFF" cx="1148.264" cy="1147.25" r="321.17"/>
<g>
	<g>
		<g>
			<path fill="#0D4A94" d="M1149.097,963.688c-4.698-0.033-8.532,3.747-8.566,8.439c-0.034,4.69,3.739,8.523,8.438,8.558
				c4.69,0.034,8.523-3.738,8.559-8.431C1157.561,967.562,1153.787,963.73,1149.097,963.688z"/>
		</g>
	</g>
	<g>
		<g>
			<path fill="#0D4A94" d="M1148.709,1014.679c-32.812-0.231-59.686,26.238-59.936,59.042
				c-0.245,32.802,26.239,59.688,59.045,59.936c0.149,0,0.302,0.001,0.452,0.001c32.596,0,59.233-26.394,59.479-59.044
				C1207.999,1041.812,1181.513,1014.925,1148.709,1014.679z M1148.27,1116.66c-0.104,0-0.218,0-0.324-0.001
				c-23.432-0.178-42.352-19.382-42.174-42.812c0.176-23.322,19.201-42.175,42.484-42.175c0.106,0,0.221,0.001,0.325,0.002
				c23.431,0.176,42.351,19.381,42.174,42.812C1190.579,1097.811,1171.553,1116.66,1148.27,1116.66z"/>
		</g>
	</g>
	<g>
		<g>
			<path fill="#0D4A94" d="M1185.343,970.133c-4.42-1.567-9.28,0.747-10.85,5.173c-1.568,4.425,0.747,9.28,5.171,10.851
				c37.433,13.267,62.38,48.919,62.081,88.714c-0.034,4.692,3.741,8.526,8.437,8.562c0.021,0,0.043,0,0.063,0
				c4.662,0,8.461-3.763,8.497-8.434C1259.096,1027.96,1229.599,985.819,1185.343,970.133z"/>
		</g>
	</g>
	<g>
		<g>
			<path fill="#0D4A94" d="M1200.408,1249.605c56.523-72.759,91.851-110.699,92.327-174.356
				c0.599-80.091-64.4-145.559-144.486-145.559c-79.15,0-143.856,64.102-144.458,143.393
				c-0.485,65.383,35.496,103.271,92.411,176.512c-56.62,8.461-92.411,29.724-92.411,55.728c0,17.42,16.102,33.05,45.338,44.014
				c26.612,9.979,61.817,15.475,99.134,15.475c37.317,0,72.521-5.495,99.135-15.475c29.236-10.965,45.339-26.595,45.339-44.014
				C1292.735,1279.331,1256.979,1258.075,1200.408,1249.605z M1020.787,1073.211c0.53-69.967,57.618-126.522,127.463-126.522
				c70.673,0,128.017,57.778,127.489,128.436c-0.452,60.453-37.916,97.707-97.726,175.675c-10.668,13.9-20.466,27.042-29.738,39.898
				c-9.246-12.863-18.849-25.771-29.676-39.904C1056.318,1169.562,1020.326,1135.122,1020.787,1073.211z M1148.263,1347.812
				c-72.959,0-127.476-22.434-127.476-42.491c0-14.876,32.589-33.668,87.387-40.175c12.112,15.894,22.731,30.332,33.147,45.077
				c1.591,2.253,4.177,3.595,6.935,3.597c0.002,0,0.005,0,0.007,0c2.756,0,5.341-1.338,6.935-3.584
				c10.316-14.556,21.227-29.351,33.235-45.08c54.745,6.515,87.308,25.3,87.308,40.166
				C1275.738,1325.38,1221.222,1347.812,1148.263,1347.812z"/>
		</g>
	</g>
</g>
<circle fill="#FFFFFF" cx="321.17" cy="321.17" r="321.17"/>
<g>
	<g>
		<g>
			<path fill="#0D4A94" d="M451.963,256.159c-14.119,0.001-25.604,11.488-25.604,25.606c0,14.12,11.486,25.605,25.604,25.605
				c14.12,0,25.606-11.487,25.606-25.605C477.569,267.646,466.083,256.159,451.963,256.159z M451.963,294.636
				c-7.097,0-12.87-5.774-12.87-12.87c0-7.099,5.773-12.871,12.87-12.871s12.87,5.772,12.87,12.871
				C464.833,288.862,459.06,294.636,451.963,294.636z"/>
		</g>
	</g>
	<g>
		<g>
			<path fill="#0D4A94" d="M451.963,224.915c-3.518,0-6.368,2.853-6.368,6.368c0,3.517,2.85,6.368,6.368,6.368
				c24.325,0,44.116,19.79,44.116,44.114c0,20.405-13.931,37.614-32.777,42.63c-1.772,0.47-3.571,0.826-5.385,1.07
				c-0.133,0.02-0.266,0.035-0.4,0.053c-0.822,0.103-1.648,0.185-2.477,0.242c-0.092,0.007-0.183,0.017-0.274,0.021
				c-1.864,0.118-3.739,0.118-5.606,0c-0.092-0.004-0.184-0.014-0.273-0.021c-0.828-0.058-1.655-0.14-2.479-0.242
				c-0.133-0.018-0.266-0.033-0.399-0.053c-1.813-0.244-3.612-0.601-5.385-1.07c-18.847-5.018-32.775-22.225-32.775-42.63
				c0-14.679,7.271-28.354,19.454-36.585c2-1.351,4.125-2.545,6.316-3.549c3.197-1.465,4.603-5.243,3.138-8.44
				c-1.464-3.197-5.244-4.603-8.44-3.138c-2.825,1.293-5.565,2.832-8.143,4.574c-15.691,10.601-25.061,28.224-25.061,47.138
				c0,24.506,15.588,45.439,37.367,53.409v26.96v63.933c0,40.362-32.839,73.201-73.201,73.201
				c-40.364,0-73.202-32.839-73.202-73.201v-54.551c34.075-6.258,64.114-29.205,87.156-66.688c4.61-7.501,3.511-16.931-2.075-23.187
				c22.748-44.27,32.953-86.038,26.682-109.849c-4.662-17.695-20.588-31.723-46.152-40.741c-0.443-5.796-3.75-11.704-9.59-16.98
				c-5.654-5.112-12.835-8.845-18.739-9.739c-12.5-1.895-24.411,8.117-26.563,22.314c-1.013,6.678,0.255,13.338,3.571,18.76
				c3.531,5.773,8.925,9.476,15.187,10.425c1.162,0.175,2.401,0.261,3.698,0.261c5.298,0,11.53-1.433,17.086-4.009
				c5.052-2.345,8.981-5.366,11.609-8.849c15.616,5.582,33.249,15.383,37.573,31.803c4.135,15.692-0.217,51.163-25.492,100.405
				c-2.596-0.461-5.278-0.398-7.918,0.23c-5.062,1.21-9.352,4.316-12.076,8.749c-20.355,33.109-45.064,49.897-73.442,49.897
				c-28.38,0-53.089-16.79-73.445-49.898c-4.304-7.003-12.351-10.32-19.994-8.979c-25.276-49.242-29.627-84.713-25.493-100.405
				c4.319-16.395,21.888-26.197,37.574-31.805c2.628,3.481,6.557,6.505,11.611,8.85c5.555,2.576,11.788,4.009,17.086,4.009
				c1.295,0,2.537-0.086,3.698-0.261c6.262-0.949,11.654-4.651,15.187-10.425c3.315-5.421,4.584-12.082,3.572-18.759
				c-2.151-14.197-14.06-24.208-26.563-22.314c-5.905,0.895-13.086,4.627-18.74,9.738c-5.839,5.276-9.145,11.184-9.587,16.979
				c-25.567,9.019-41.487,23.041-46.149,40.742c-6.273,23.81,3.93,65.577,26.678,109.846c-5.586,6.257-6.687,15.685-2.075,23.188
				c23.042,37.483,53.081,60.432,87.157,66.689v31.174c0,3.517,2.852,6.367,6.369,6.367c3.517,0,6.367-2.85,6.367-6.367v-36.621
				c0-3.202-2.378-5.905-5.553-6.316c-32.421-4.182-61.29-25.481-83.491-61.595c-1.938-3.153-0.962-7.289,2.166-9.25
				c0.023-0.013,0.05-0.021,0.073-0.033c0.091-0.049,0.176-0.104,0.263-0.158c3.133-1.724,7.107-0.702,8.997,2.372
				c22.829,37.137,51.188,55.967,84.293,55.967c33.104,0,61.464-18.828,84.292-55.965c0.943-1.534,2.43-2.611,4.182-3.03
				c1.634-0.389,3.315-0.155,4.778,0.64c0.1,0.059,0.195,0.123,0.3,0.178c0.025,0.015,0.052,0.021,0.075,0.035
				c3.126,1.963,4.1,6.095,2.162,9.248c-22.2,36.113-51.069,57.412-83.487,61.594c-3.176,0.411-5.554,3.114-5.554,6.316v59.999
				c0,47.386,38.552,85.937,85.937,85.937c47.387,0,85.937-38.551,85.937-85.937v-63.934v-23.921
				c0.177,0.021,0.356,0.036,0.534,0.056c0.249,0.027,0.498,0.055,0.747,0.078c0.776,0.075,1.554,0.136,2.333,0.179
				c0.189,0.01,0.377,0.017,0.565,0.024c0.823,0.038,1.647,0.062,2.47,0.062c0.033,0,0.066,0.003,0.099,0.003
				c0.033,0,0.065-0.003,0.099-0.003c0.824-0.001,1.646-0.024,2.471-0.062c0.188-0.008,0.377-0.015,0.565-0.024
				c0.778-0.042,1.556-0.103,2.332-0.179c0.25-0.023,0.499-0.051,0.749-0.078c0.178-0.02,0.356-0.035,0.533-0.056v87.853
				c0,25.453-9.648,49.686-27.172,68.233c-2.414,2.556-2.301,6.585,0.256,9c1.23,1.164,2.802,1.739,4.371,1.739
				c1.691,0,3.378-0.668,4.631-1.995c19.764-20.92,30.649-48.258,30.649-76.979v-90.891c21.782-7.971,37.368-28.903,37.368-53.411
				C508.813,250.419,483.311,224.915,451.963,224.915z M338.957,133.033c-0.917,6.057-14.894,11.209-21.494,10.203
				c-2.482-0.377-4.694-1.968-6.232-4.479c-1.753-2.865-2.408-6.488-1.845-10.204c1.081-7.134,6.613-12.464,12.064-11.633
				c2.784,0.422,7.763,2.668,12.108,6.594C337.27,126.871,339.339,130.518,338.957,133.033z M199.625,123.516
				c4.346-3.926,9.322-6.172,12.109-6.594c0.375-0.056,0.751-0.084,1.127-0.084c5.07,0,9.929,5.074,10.937,11.717
				c0.563,3.715-0.092,7.339-1.846,10.203c-1.536,2.513-3.75,4.104-6.23,4.479c-6.606,1.008-20.578-4.146-21.495-10.202
				C193.845,130.518,195.914,126.871,199.625,123.516z"/>
		</g>
	</g>
	<g>
		<g>
			<path fill="#0D4A94" d="M425.464,508.799c-2.032-2.87-6.005-3.55-8.877-1.519c-16.839,11.921-36.656,18.223-57.309,18.223
				c-54.829,0-99.436-44.607-99.436-99.437c0-3.516-2.849-6.368-6.367-6.368c-3.517,0-6.369,2.852-6.369,6.368
				c0,61.852,50.32,112.171,112.171,112.171c23.302,0,45.665-7.111,64.666-20.562C426.815,515.643,427.495,511.668,425.464,508.799z
				"/>
		</g>
	</g>
</g>
</svg>
